{"title":"Hercules 2014 720p BluRay DTS x264-DNL [MovietaM]","uid":11291239,"size":5385854682,"categoryP":"video","categoryS":"hd___movies","magnet":"?xt=urn:btih:19977f7b276c6837a74c03ce3e6311d327b858b9&amp;dn=Hercules+2014+720p+BluRay+DTS+x264-DNL+%5BMovietaM%5D&amp;tr=udp%3A%2F%2Ftracker.openbittorrent.com%3A80&amp;tr=udp%3A%2F%2Fopen.demonii.com%3A1337&amp;tr=udp%3A%2F%2Ftracker.coppersurfer.tk%3A6969&amp;tr=udp%3A%2F%2Fexodus.desync.com%3A6969","seeders":2,"leechers":0,"uploader":"divachen","files":2,"time":1414331304,"description":"[img]http://ww3.sinaimg.cn/large/a83bb572jw1elotoacejvj20x315o4bf.jpg[/img]\n\n[code]General\nUnique ID : 196357652418423757384235940010687397684 (0x93B91BB6F1224279A434CFABC972FF34)\nComplete name : Hercules 2014 720p BluRay DTS x264-DNL.mkv\nFormat : Matroska\nFormat version : Version 4 / Version 2\nFile size : 5.02 GiB\nDuration : 1h 41mn\nOverall bit rate mode : Variable\nOverall bit rate : 7 067 Kbps\nMovie name : Hercules 2014 720p BluRay DTS x264-DNL\nEncoded date : UTC 2014-10-21 19:35:40\nWriting application : mkvmerge v7.0.0 ('Where We Going') 32bit built on Jun 9 2014 15:08:34\nWriting library : libebml v1.3.0 + libmatroska v1.4.1\nDURATION : 01:33:42.439000000\nNUMBER_OF_FRAMES : 908\nNUMBER_OF_BYTES : 28590\n_STATISTICS_WRITING_APP : mkvmerge v7.0.0 ('Where We Going') 32bit built on Jun 9 2014 15:08:34\n_STATISTICS_WRITING_DATE_UTC : 2014-10-21 19:35:40\n_STATISTICS_TAGS : BPS DURATION NUMBER_OF_FRAMES NUMBER_OF_BYTES\n\nVideo\nID : 1\nFormat : AVC\nFormat/Info : Advanced Video Codec\nFormat profile : [email protected]\n\n\nFormat settings, CABAC : Yes\nFormat settings, ReFrames : 11 frames\nCodec ID : V_MPEG4/ISO/AVC\nDuration : 1h 41mn\nBit rate mode : Variable\nBit rate : 5 555 Kbps\nMaximum bit rate : 25.0 Mbps\nWidth : 1 280 pixels\nHeight : 534 pixels\nDisplay aspect ratio : 2.40:1\nFrame rate : 23.976 fps\nColor space : YUV\nChroma subsampling : 4:2:0\nBit depth : 8 bits\nScan type : Progressive\nBits/(Pixel*Frame) : 0.339\nStream size : 3.84 GiB (77%)\nWriting library : x264 core 112 r1867 22bfd31\nEncoding settings : cabac=1 / ref=11 / deblock=1:0:0 / analyse=0x3:0x133 / me=umh / subme=7 / psy=1 / psy_rd=1.00:0.00 / mixed_ref=1 / me_range=16 / chroma_me=1 / trellis=1 / 8x8dct=1 / cqm=0 / deadzone=21,11 / fast_pskip=1 / chroma_qp_offset=-2 / threads=12 / sliced_threads=0 / nr=0 / decimate=1 / interlaced=0 / constrained_intra=0 / bframes=3 / b_pyramid=0 / b_adapt=1 / b_bias=0 / direct=1 / weightb=1 / open_gop=0 / weightp=2 / keyint=240 / keyint_min=24 / scenecut=40 / intra_refresh=0 / rc_lookahead=40 / rc=2pass / mbtree=1 / bitrate=5555 / ratetol=1.0 / qcomp=0.60 / qpmin=0 / qpmax=51 / qpstep=4 / cplxblur=20.0 / qblur=0.5 / vbv_maxrate=25000 / vbv_bufsize=25000 / nal_hrd=vbr / ip_ratio=1.40 / aq=1:1.00\nDefault : Yes\nForced : No\n\nAudio\nID : 2\nFormat : DTS\nFormat/Info : Digital Theater Systems\nCodec ID : A_DTS\nDuration : 1h 41mn\nBit rate mode : Constant\nBit rate : 1 510 Kbps\nChannel(s) : 6 channels\nChannel positions : Front: L C R, Side: L R, LFE\nSampling rate : 48.0 KHz\nBit depth : 24 bits\nCompression mode : Lossy\nStream size : 1.07 GiB (21%)\nLanguage : English\nDefault : Yes\nForced : No\n\nText #1\nID : 3\nFormat : UTF-8\nCodec ID : S_TEXT/UTF8\nCodec ID/Info : UTF-8 Plain Text\nLanguage : English\nDefault : No\nForced : No\n\nText #2\nID : 4\nFormat : UTF-8\nCodec ID : S_TEXT/UTF8\nCodec ID/Info : UTF-8 Plain Text\nLanguage : Romanian\nDefault : No\nForced : No[/code]\n\n[URL=http://someimage.com/XmeixMQ][IMG]http://t1.someimage.com/XmeixMQ.jpg[/IMG][/URL] [URL=http://someimage.com/m6ixws3][IMG]http://t1.someimage.com/m6ixws3.jpg[/IMG][/URL] \n[URL=http://someimage.com/7Nke8Mc][IMG]http://t1.someimage.com/7Nke8Mc.jpg[/IMG][/URL] [URL=http://someimage.com/7R3Q30N][IMG]http://t1.someimage.com/7R3Q30N.jpg[/IMG][/URL]","torrent":{"xt":"urn:btih:19977f7b276c6837a74c03ce3e6311d327b858b9","amp;dn":"Hercules+2014+720p+BluRay+DTS+x264-DNL+%5BMovietaM%5D","amp;tr":["udp%3A%2F%2Ftracker.openbittorrent.com%3A80","udp%3A%2F%2Fopen.demonii.com%3A1337","udp%3A%2F%2Ftracker.coppersurfer.tk%3A6969","udp%3A%2F%2Fexodus.desync.com%3A6969"],"infoHash":"19977f7b276c6837a74c03ce3e6311d327b858b9","infoHashBuffer":{"type":"Buffer","data":[25,151,127,123,39,108,104,55,167,76,3,206,62,99,17,211,39,184,88,185]},"announce":[],"urlList":[]}}